<svg xmlns="http://www.w3.org/2000/svg" viewBox="0 0 512 512" height="512" width="512"><g style="fill:var(--icon-fill, #fff);"><path d="M256 24c59 49 98 97 118 144 22 51 22 99 0 144-23 47-66 75-118 75s-95-28-118-75c-22-45-22-93 0-144 20-47 59-95 118-144zm0 76c-39 37-65 70-78 101-15 35-15 65-1 93 15 31 43 49 79 49s64-18 79-49c14-28 14-58-1-93-13-31-39-64-78-101z"/><path d="M256 156c25 26 42 49 50 70 9 22 8 42-2 59-10 19-28 30-48 30s-38-11-48-30c-10-17-11-37-2-59 8-21 25-44 50-70zM120 408h272v48H120z"/></g></svg>
