<svg xmlns="http://www.w3.org/2000/svg" viewBox="0 0 512 512" height="512" width="512"><g style="fill:var(--icon-fill, #fff);"><path d="M80 150h238c38 0 66-25 66-58 0-28-20-48-48-48-25 0-43 17-43 41h48c0-5 3-9 9-9 8 0 14 7 14 16 0 15-15 30-46 30H80v28zM48 238h320c55 0 96-35 96-82 0-43-33-74-78-74-39 0-70 27-70 63h48c0-10 9-18 22-18 17 0 30 13 30 29 0 31-30 54-72 54H48v28zm64 92h246c31 0 54 19 54 44 0 19-16 34-36 34-16 0-28-10-28-24h-48c0 42 34 72 76 72 47 0 84-36 84-82 0-52-43-92-102-92H112v48z"/></g></svg>
