<?xml version="1.0" encoding="UTF-8"?>
<svg id="Layer_2" xmlns="http://www.w3.org/2000/svg" viewBox="0 0 610.9 602.44">
  <g id="Layer_2-2" data-name="Layer_2">
    <path d="M5.41,348.52s10,72,59,92c-4.21,9.58-20-135,115-145,72.05-5.34,131,75,120,125,0,0-2,110-126,118,0,0-104,5-160-96-5-15-22-40-8-94Z"/>
    <path d="M474.92,39.55s-67.52-26.92-109.14,5.77c-6.24-8.39,127.22,49.39,69.14,171.67-31,65.26-129.98,76.76-167.99,42.47,0,0-94.61-56.14-40.24-167.87,0,0,47.09-92.86,162.57-91.58,15.51,3.07,45.65.66,85.65,39.54Z"/>
    <path d="M502.81,602.44s58.35-43.35,52.37-95.93c10.42-.91-108.81,82.37-182.41-31.24-39.28-60.64,2.88-150.92,52.02-165.28,0,0,97.45-51.07,164.01,53.86,0,0,54.33,88.82-7.37,186.44-10.76,11.59-24.52,38.51-78.61,52.16Z"/>
  </g>
</svg>