<svg xmlns="http://www.w3.org/2000/svg" viewBox="0 0 512 512" width="512" height="512">
    <g transform="matrix(6.123233995736769e-17,-1.0000000000000004,1.0000000000000004,6.123233995736769e-17,-1.1368683772161603e-13,512.0000000000001)">
        <path d="M256 272.696c-84.388 0-153.043-68.655-153.043-153.044 0-31.953 9.849-61.646 26.663-86.215C52.27 77.532 0 160.774 0 256c0 141.158 114.842 256 256 256 1.031 0 2.056-.027 3.084-.039 64.557-1.642 116.568-54.668 116.568-119.613 0-65.977-53.676-119.652-119.652-119.652zm0 153.043c-18.442 0-33.391-14.949-33.391-33.391s14.949-33.391 33.391-33.391 33.391 14.949 33.391 33.391-14.949 33.391-33.391 33.391z"></path>
        <path d="M256 0c-1.031 0-2.056.027-3.084.039-64.557 1.642-116.568 54.668-116.568 119.613 0 65.977 53.677 119.652 119.652 119.652 84.388 0 153.043 68.655 153.043 153.043 0 31.953-9.849 61.646-26.663 86.215C459.73 434.468 512 351.226 512 256 512 114.842 397.158 0 256 0zm0 153.043c-18.442 0-33.391-14.949-33.391-33.391S237.558 86.261 256 86.261s33.391 14.949 33.391 33.391-14.949 33.391-33.391 33.391z"></path>
    </g>
</svg>
