<svg xmlns="http://www.w3.org/2000/svg" viewBox="0 0 512 512" width="512" height="512">
  <g transform="translate(0,0)" style="fill: var(--icon-fill, #fff); stroke: var(--icon-fill, #fff); touch-action: none;">
    <path fill="none" stroke-width="20" stroke-linecap="round" stroke-linejoin="round" opacity=".55" d="M134 346c29 37 72 58 122 58s93-21 122-58"/>
    <path fill="none" stroke-width="18" stroke-linecap="round" stroke-linejoin="round" opacity=".35" d="M91 371c38 54 97 84 165 84s127-30 165-84"/>
    <path fill="none" stroke-width="16" stroke-linecap="round" opacity=".5" d="M146 170c-42 21-68 55-68 93 0 70 80 127 178 127s178-57 178-127c0-38-26-72-68-93"/>
    <path opacity=".9" d="M256 31c46 63 65 116 57 159 30-25 48-62 55-112 76 82 92 185 41 265-36 57-94 91-153 91s-117-34-153-91c-51-80-35-183 41-265 7 50 25 87 55 112-8-43 11-96 57-159zm0 93c-25 43-30 82-14 117-21-9-38-30-49-63-31 46-35 94-10 136 18 31 46 49 73 49s55-18 73-49c25-42 21-90-10-136-11 33-28 54-49 63 16-35 11-74-14-117z"/>
    <path opacity=".75" d="M256 214c26 35 39 66 39 93 0 33-18 55-39 55s-39-22-39-55c0-27 13-58 39-93z"/>
    <path fill="none" stroke-width="20" stroke-linecap="round" opacity=".55" d="M256 25v76"/>
  </g>
</svg>
