<svg xmlns="http://www.w3.org/2000/svg" version="1.1" width="512" height="512" viewBox="0 0 50 56">
  <g style="fill: var(--icon-fill, #fff);">
    <path id="Effect" d="m5 27.414 1.293 1.293a1 1 0 0 0 1.414-1.414L6.414 26a2 2 0 0 0-2.828 0L3 26.586l-1.293-1.293a1 1 0 0 0-1.414 1.414L1.586 28a2 2 0 0 0 2.828 0zM9.952 33.693a1 1 0 0 0-1.259-.645l-1.74.561a2 2 0 0 0-1.29 2.516l.254.79-1.741.56a1 1 0 1 0 .614 1.903l1.74-.56A2 2 0 0 0 7.82 36.3l-.254-.789 1.741-.56a1 1 0 0 0 .645-1.258zM9.941 21.661 9.32 19.94a2 2 0 0 0-2.559-1.2l-.78.281-.62-1.721a1 1 0 0 0-1.882.679L4.1 19.7a2 2 0 0 0 2.56 1.2l.779-.281.62 1.72a1 1 0 0 0 1.882-.678zM48.414 28l1.293-1.293a1 1 0 0 0-1.414-1.414L47 26.586 46.414 26a2 2 0 0 0-2.828 0l-1.293 1.293a1 1 0 1 0 1.414 1.414L45 27.414l.586.586a2 2 0 0 0 2.828 0zM42.3 37.827c.24.473.66.83 1.166.991l1.74.56a1 1 0 1 0 .614-1.903l-1.741-.561.254-.788a2 2 0 0 0-1.29-2.517l-1.74-.561a1 1 0 0 0-.614 1.9l1.741.56-.254.789a1.986 1.986 0 0 0 .124 1.53zM40.661 22.941a1 1 0 0 0 1.28-.6l.62-1.72.779.281a2 2 0 0 0 2.56-1.2l.621-1.72a1 1 0 0 0-1.882-.679l-.62 1.721-.78-.282a2.006 2.006 0 0 0-2.56 1.2l-.62 1.721a1 1 0 0 0 .602 1.278zM16.774 12.426A4.971 4.971 0 0 0 20 7.85V1a1 1 0 0 1 1-1h8a1 1 0 0 1 1 1v6.85a4.971 4.971 0 0 0 3.226 4.576 6 6 0 1 1-7.845 7.674A6.385 6.385 0 0 1 25 17.981a1 1 0 0 0-1-.972h-.006A1 1 0 0 0 23 18.015a8.019 8.019 0 0 0 .837 3.494 5.991 5.991 0 1 1-7.063-9.083zm16.452 31.148A4.97 4.97 0 0 0 30 48.15V55a1 1 0 0 1-1 1h-8a1 1 0 0 1-1-1v-6.85a4.97 4.97 0 0 0-3.226-4.576A6 6 0 0 1 18.983 32a5.983 5.983 0 0 1 4.857 2.483 8.02 8.02 0 0 0-.84 3.5 1 1 0 0 0 .994 1.006H24a1 1 0 0 0 1-.985 6.105 6.105 0 0 1 .382-2.1 6 6 0 1 1 7.845 7.672zm3.024-11.6a7.905 7.905 0 0 0-3.883-1.857 8.005 8.005 0 0 0-7.367 2.6 8 8 0 0 0-7.367-2.6 7.905 7.905 0 0 0-3.883 1.857A5.79 5.79 0 0 1 12 28a5.79 5.79 0 0 1 1.75-3.971 7.905 7.905 0 0 0 3.883 1.857A8 8 0 0 0 25 23.283 7.975 7.975 0 0 0 31.011 26a7.905 7.905 0 0 0 5.239-1.97A5.79 5.79 0 0 1 38 28a5.79 5.79 0 0 1-1.75 3.971z">
    </path>
  </g>
</svg>