<svg xmlns="http://www.w3.org/2000/svg" version="1.1" width="512" height="512" viewBox="0 0 24 24">
  <g style="fill: var(--icon-fill, #fff);">
    <path id="Effect" d="m21.035 16.351-1.926-1.112 1.051-.297a.751.751 0 0 0-.408-1.444l-1.811.512a1.732 1.732 0 0 0-.519.255L13.5 12l3.93-2.269c.157.108.331.197.524.249l1.704.457a.75.75 0 0 0 .388-1.449l-.907-.243 1.896-1.095a.75.75 0 0 0-.75-1.299l-1.926 1.112.268-1.059a.75.75 0 1 0-1.454-.368l-.462 1.824a1.712 1.712 0 0 0-.039.577l-3.922 2.265V6.163c.172-.083.336-.188.477-.33l1.247-1.247a.749.749 0 1 0-1.06-1.06l-.664.664V2a.75.75 0 0 0-1.5 0v2.224l-.783-.761a.75.75 0 0 0-1.046 1.075L10.77 5.85c.143.14.307.243.48.323v4.529L7.32 8.433a1.728 1.728 0 0 0-.047-.579L6.817 6.15a.75.75 0 1 0-1.449.388l.242.908-1.895-1.095a.75.75 0 1 0-.75 1.299l1.926 1.112-1.051.297a.75.75 0 1 0 .408 1.443l1.81-.511c.193-.055.364-.146.52-.255L10.5 12l-3.93 2.269a1.764 1.764 0 0 0-.525-.249l-1.703-.456a.75.75 0 0 0-.389 1.449l.908.243-1.896 1.095a.75.75 0 1 0 .75 1.299l1.925-1.112-.268 1.059a.751.751 0 0 0 1.455.368l.461-1.824c.049-.194.057-.388.039-.577l3.923-2.265v4.539a1.723 1.723 0 0 0-.478.329l-1.247 1.247a.75.75 0 1 0 1.061 1.061l.664-.664V22a.75.75 0 0 0 1.5 0v-2.223l.783.761a.746.746 0 0 0 1.06-.015.75.75 0 0 0-.015-1.06l-1.348-1.312a1.721 1.721 0 0 0-.48-.322v-4.53l3.93 2.269c-.015.191-.005.385.047.579l.456 1.704a.75.75 0 0 0 1.449-.388l-.243-.908 1.896 1.095a.748.748 0 0 0 1.024-.275.75.75 0 0 0-.274-1.024">
    </path>
  </g>
</svg>