<svg xmlns="http://www.w3.org/2000/svg" version="1.1" xmlns:xlink="http://www.w3.org/1999/xlink" width="512" height="512" x="0" y="0" viewBox="0 0 60 60" style="enable-background:new 0 0 512 512" xml:space="preserve">
  <g style="fill: var(--icon-fill, #fff);">
    <path id="Effect" d="m13.91 19.35.37 5.81c.02.24-.06.5-.2.7l-3.85 5.52 1.87.94c.29.15.5.42.58.75l.35 1.63c.03.19.02.4-.04.59l-.36 1.05.96.73c.26.19.43.51.43.85.01.34-.15.66-.42.88l-.36.29.58.51c.24.21.37.51.37.82v2.74c0 1.13.88 2.1 1.99 2.22 1.2.12 2.44.08 3.64.04.36-.03.71-.04 1.06-.05h.17c2.7 0 5.18 1.63 6.2 4.08.59 1.41.93 2.93 1.04 4.55l15.06-3.36c-1.39-3.25-1.82-6.22-1.28-9.04.09-2.78 1.6-6.12 4.75-10.54 1.21-1.68 2.06-3.45 2.51-5.23v-.01c-14.48-10.98-31.53-7.48-35.42-6.47z"></path>
    <path id="Effect" d="M35.62 17.03c-7.5-4.7-16.27-5.69-18.34-5.86a13.529 13.529 0 0 0-3.14 5.86c3.52-.81 11.98-2.23 21.48 0zM27.38 6.26c1.77.44 3.92 1.06 6.24 1.93 1.05-.04 4.74-.1 8.39.74-3.89-2.51-8.87-3.44-14.63-2.67zM47.08 13.97c-.15-.23-.31-.45-.46-.66-1.77-1.51-4.61-2.27-7.19-2.63 3.05 1.53 6.18 3.47 9.04 5.92-.37-.87-.83-1.75-1.39-2.63z"></path>
    <path id="Effect" d="M22.46 7.5h-.02c-1.06.46-2.05 1.03-2.95 1.7 4.72.63 14.9 2.74 22.15 9.75 2.71 1.09 5.43 2.55 8.1 4.44.01-.08.02-.16.02-.24.03-.8 0-1.6-.11-2.4C39.94 10.51 24.6 7.83 22.46 7.5z"></path>
  </g>
</svg>