<svg xmlns="http://www.w3.org/2000/svg" version="1.1" width="512" height="512" viewBox="0 0 479.997 479.997">
  <g style="fill: var(--icon-fill, #fff);">
    <path id="Effect" d="M325.462 298.829c1.476 2.134.546 5.113-1.891 6.003-6.69 2.444-17.985 3.11-24.654 1.591-2.606-.594-3.929-3.522-2.616-5.85 3.542-6.282 12.661-15.399 23.776-7.256a23.44 23.44 0 0 1 5.385 5.512zm-168.639-26.786c-11.481 3.21-20.229 17.866-19.052 21.801.279.933 4.502 3.862 14.952 4.543 13.216.865 24.995-2.275 29.952-5.22a4.016 4.016 0 0 0 1.691-4.967c-2.902-7.143-15.084-19.644-27.543-16.157zm78.317 108.846c-5.152 1.441-9.609 6.295-11.863 10.214-1.327 2.309.03 5.238 2.626 5.831 6.691 1.529 18.05.852 24.734-1.613 2.42-.893 3.37-3.85 1.909-5.975-3.57-5.195-10.902-10.276-17.406-8.457zm244.853-89.41c-.467 24.694-51.526 35.344-50.8 55.9.314 9.206 14.15 14.438 15.63 31.59 2.35 27.2-30.324 50.353-42.65 59.04-104.343 73.531-236.857 1.128-292.34 30.56-15.829 8.397-33.686 12.665-48.49 2.42-10.61-7.33-14.36-15.99-15.64-21.96-7.053-32.884 41.758-55.548 41.15-81.45-.803-33.863-86.211-43.286-86.85-78.06-.41-23.11 35.13-41.27 65.03-52.44 84.794-31.664 200.4-39.756 305.4-12.58 31.983 8.277 110.185 34.01 109.56 66.98zm-292.22-24.881c-21.47-19.574-48.5-11.917-61.812 12.237-10.136 18.393-2.865 35.676 31.248 35.676 15.89 0 40.685-4.843 43.537-20.471 1.688-9.247-5.3-20.445-12.973-27.442zm72.005 106.984c-17.492-15.948-39.734-9.722-50.556 9.917-8.723 15.83-1.269 30.269 25.313 30.268 13.402 0 33.408-4.075 35.826-17.32 1.526-8.363-4.747-17.544-10.583-22.865zm73-90.513c-17.492-15.949-39.733-9.721-50.557 9.917-8.722 15.831-1.268 30.268 25.314 30.268 13.533 0 33.418-4.128 35.826-17.32 1.526-8.363-4.747-17.543-10.583-22.865zm34.226-111.06c0 7.17 5.83 13 13 13s13-5.83 13-13-5.83-13-13-13-13 5.83-13 13zm-48.5-9c16.27 0 29.5-13.23 29.5-29.5s-13.23-29.5-29.5-29.5-29.5 13.23-29.5 29.5 13.229 29.5 29.5 29.5zm66.5-62c27.02 0 49-21.98 49-49s-21.98-49-49-49-49 21.98-49 49 21.979 49 49 49z">
    </path>
  </g>
</svg>