<svg xmlns="http://www.w3.org/2000/svg" version="1.1" width="512" height="512" viewBox="0 0 512.737 512.737">
  <g style="fill: var(--icon-fill, #fff);">
    <path id="Effect" d="M507.138 238.173C469.237 66.481 216.49 17.357 116.518 162.97c-27.307 40.076-36.484 87.096-25.842 132.396C112.189 391.625 219.436 444.92 313 421.132c122.156-27.6 156.498-184.36 46.706-245.907-32.22-18.073-70.527-23.196-107.866-14.425-54.395 12.779-88.99 64.288-77.118 114.821 11.403 51.422 68.946 81.406 120.179 68.469 31.223-7.336 51.026-37.135 44.145-66.427-6.435-29.742-39.901-47.383-69.106-39.82-8.065 1.895-13.066 9.968-11.172 18.033 1.895 8.064 9.965 13.068 18.033 11.172 7.563-1.776 15.232-.789 21.596 2.781 5.936 3.33 10 8.548 11.443 14.695 3.099 13.189-6.682 26.809-21.801 30.361-38.293 8.999-76.025-11.696-84.113-46.125-8.089-34.43 16.483-69.759 54.774-78.754 30.01-7.051 60.669-3.007 86.328 11.385 25.228 14.152 42.579 36.664 48.858 63.39 20.655 113.332-118.08 163.12-206.44 111.461-121.471-70.492-75.83-234.33 53.156-263.277 52.46-12.325 106.108-5.227 151.058 19.988 44.521 24.973 75.16 64.778 86.273 112.083 25.112 100.53-53.431 202.846-153.695 223.933C6.328 531.069-89.776 121.851 222.502 35.92c8.064-1.895 13.066-9.968 11.172-18.033-1.895-8.064-9.967-13.068-18.033-11.172C77.984 35.691-28.052 177.274 6.632 315.112 38.02 455.502 194.726 532.871 331.1 498.174c116.028-24.43 205.283-143.83 176.038-260.001z">
    </path>
  </g>
</svg>