<svg xmlns="http://www.w3.org/2000/svg" version="1.1" width="512" height="512" viewBox="0 0 100 100">
  <g style="fill: var(--icon-fill, #fff);">
    <path id="Effect" d="m32.13 96.14 5.6-17.35c.19-.6.67-1.07 1.27-1.27l17.34-5.59c1.82-.58 1.82-3.15 0-3.74l-18.3-5.91h-.01l-5.89-18.29c-.59-1.82-3.15-1.82-3.74 0l-5.88 18.29h-.02L4.19 68.19c-1.82.59-1.81 3.15 0 3.74l17.35 5.59c.6.19 1.07.67 1.27 1.27l5.59 17.35c.58 1.81 3.15 1.81 3.73 0zM84.12 45.75l-3.75-11.67c-.58-1.82-3.15-1.82-3.74 0l-3.76 11.68h-.01l-11.68 3.77c-1.82.59-1.82 3.15 0 3.74l10.72 3.46c.6.19 1.07.66 1.27 1.27l3.47 10.73c.59 1.81 3.15 1.81 3.74 0L83.84 58c.19-.6.67-1.07 1.27-1.27l10.72-3.46c1.82-.59 1.82-3.15 0-3.74l-11.68-3.77zM50.56 31.91l2.66-8.24c.19-.6.67-1.07 1.27-1.27l8.24-2.65c1.82-.58 1.82-3.15 0-3.74l-9.2-2.97h-.01l-2.95-9.18c-.58-1.82-3.16-1.82-3.74 0l-2.94 9.18h-.01l-9.2 2.97c-1.82.59-1.81 3.15 0 3.74l8.24 2.65c.6.19 1.07.67 1.27 1.27l2.65 8.24c.56 1.81 3.13 1.81 3.72 0z">
    </path>
  </g>
</svg>