<svg xmlns="http://www.w3.org/2000/svg" version="1.1" width="512" height="512" viewBox="0 0 56 56">
  <g style="fill: var(--icon-fill, #fff);">
    <path id="Effect" d="M32.931 48.375a8.3 8.3 0 0 0-.882 2.773 46.774 46.774 0 0 1-3.663-1.494c.122-.14.213-.304.268-.481.332-1.047-.592-2.1-2.91-3.319-.356-.186-.952-.484-1.722-.868-2.343-1.169-6.2-3.1-9.884-5.18a39.691 39.691 0 0 1-.106-1.838 1 1 0 0 0-1-.965H13a1 1 0 0 0-.964 1.034c.168 4.845.936 6.541 1.5 7.779.3.544.46 1.154.464 1.775A3.109 3.109 0 0 1 11 51a3.109 3.109 0 0 1-3-3.409 3.735 3.735 0 0 1 .47-1.774C9.079 44.472 10 42.437 10 36a1 1 0 0 0-1.992-.042c-2.833-2.092-2.846-2.885-2.852-2.885.219-.419.925-.555 1.48-.6 3.564-.273 10.522 2.595 12.905 4.117a1.09 1.09 0 0 0-.338.7c-.112 1.125 1 1.53 3.959 2.611 1.334.457 2.641.991 3.914 1.599 1.182.618 4.022 2.28 6.893 4.164a16.776 16.776 0 0 1-1.038 2.711zM20.592 16.03c.76-1.511 1.908-3.8 1.908-11.03a1 1 0 0 0-1-1 .985.985 0 0 0-.958.792C15.816 1.707 15.811.636 15.807.613c.217-.419.923-.555 1.478-.6 3.571-.268 10.527 2.593 12.908 4.115a1.1 1.1 0 0 0-.339.709c-.111 1.125.993 1.528 3.943 2.605 1.34.456 2.653.99 3.931 1.6 4.954 2.585 14.681 9.083 14.922 10.935-.253.284-.606.46-.986.487-3.013.557-9.352-1.773-12.631-3.271.124-.141.216-.307.272-.486.331-1.048-.595-2.1-2.91-3.308-.365-.19-.976-.5-1.767-.891-1.726-.862-4.287-2.141-6.987-3.589a42.816 42.816 0 0 1-.111-1.966 1 1 0 0 0-2 .066c.189 5.65 1.164 7.59 1.876 9.006.378.605.583 1.302.594 2.015A3.855 3.855 0 0 1 24 22a3.855 3.855 0 0 1-4-3.96c.01-.711.215-1.406.592-2.01zM-.021 11.517a.867.867 0 0 1 .543-.363c2.715-.864 11.148 1.983 17.716 5.292A5.138 5.138 0 0 0 18 18.04 5.848 5.848 0 0 0 24 24a6.127 6.127 0 0 0 3.441-1.018c1.875.766 3.9 1.609 5.367 2.389 7.724 4.142 22.65 13.733 23.146 16.183-.256.319-1.133.581-2.873.442a44.617 44.617 0 0 1-.049-1.019 1 1 0 1 0-2 .07c.168 4.837.936 6.533 1.5 7.77.301.543.462 1.153.468 1.774a3.025 3.025 0 1 1-6 0 3.735 3.735 0 0 1 .47-1.774C48.079 47.472 49 45.437 49 39a1 1 0 0 0-2 0c0 .6-.01 1.143-.024 1.66a66.743 66.743 0 0 1-5.9-2.146 74.175 74.175 0 0 1-.069-2.483 1 1 0 0 0-1-.988h-.012a1 1 0 0 0-.988 1.012c.1 8.508 1.34 11.2 2.248 13.16.48.85.735 1.809.745 2.785 0 3.346-1.467 4-4 4s-4-.654-4-4c.01-.976.267-1.934.746-2.785C35.644 47.275 37 44.344 37 35a1 1 0 0 0-2 0c0 .222 0 .423-.005.637a15.987 15.987 0 0 1-3.066-2.044c.335-.269.536-.67.551-1.1.047-1.462-1.884-2.636-7.009-5.376a160.11 160.11 0 0 0-3.285-1.661C16.414 22.583 1.086 14.95.008 11.691a.377.377 0 0 1-.029-.174z">
    </path>
  </g>
</svg>