<svg xmlns="http://www.w3.org/2000/svg" version="1.1" xmlns:xlink="http://www.w3.org/1999/xlink" width="512" height="512" x="0" y="0" viewBox="0 0 100 100" style="enable-background:new 0 0 512 512" xml:space="preserve" class="">
  <g style="fill: var(--icon-fill, #fff);">
    <path id="Effect" d="M81.568 65.061c0 1.61-.099 3.203-.312 4.78-.97 7.358-4.122 15.587-8.672 21.943 0 .017-.017.017-.017.017A47.34 47.34 0 0 1 50 97.5c-23.8 0-43.525-17.525-46.974-40.372.197.099.36.263.492.46 24.703 35.97 53.118 15.998 53.118 15.998a26.3 26.3 0 0 0 5.469-6.209 19.429 19.429 0 0 0 2.99-10.281c0-5.207-2.25-10.184-7.425-12.516-3.087-1.38-5.995-.558-7.769 2.365-.147.23-.443.756-.755 1.413-.197.344-.51.624-.887.739a1.534 1.534 0 0 1-1.938-.986 8.82 8.82 0 0 1-.674-3.383 8.752 8.752 0 0 1 3.482-7.03c4.255-3.285 10.053-3.827 15.062-2.25 11.842 3.745 17.377 17.607 17.377 29.613z"></path>
    <path id="Effect" d="M96.974 42.872a1.315 1.315 0 0 1-.492-.46C71.779 6.442 43.364 26.414 43.364 26.414a26.303 26.303 0 0 0-5.469 6.209 19.43 19.43 0 0 0-2.99 10.282c0 5.206 2.25 10.183 7.425 12.515 3.087 1.38 5.995.559 7.769-2.365.147-.23.443-.756.755-1.412.197-.345.51-.625.887-.74a1.534 1.534 0 0 1 1.938.986 8.821 8.821 0 0 1 .674 3.383 8.752 8.752 0 0 1-3.482 7.03c-4.255 3.285-10.053 3.827-15.062 2.25-11.842-3.745-17.377-17.607-17.377-29.613 0-1.61.099-3.203.312-4.78.97-7.375 4.139-15.603 8.689-21.96A47.337 47.337 0 0 1 50 2.5c23.8 0 43.525 17.525 46.974 40.372z"></path>
  </g>
</svg>