<svg xmlns="http://www.w3.org/2000/svg" version="1.1" width="512" height="512" viewBox="0 0 511.996 511.996">
  <g style="fill: var(--icon-fill, #fff);">
    <path id="Effect" d="M383.155 235.248a8.543 8.543 0 0 0-7.697-4.847h-74.307l56.96-219.721a8.524 8.524 0 0 0-4.42-9.762 8.511 8.511 0 0 0-10.479 2.261l-213.33 264.529a8.542 8.542 0 0 0-1.058 9.045 8.543 8.543 0 0 0 7.697 4.847h74.307l-56.959 219.721a8.524 8.524 0 0 0 4.42 9.762 8.524 8.524 0 0 0 10.478-2.261l213.33-264.529a8.542 8.542 0 0 0 1.058-9.045zM152.776 132.892a8.525 8.525 0 0 0-7.714-4.89h-40.089L136.248 10.74a8.535 8.535 0 0 0-4.343-9.788c-3.567-1.843-7.936-.93-10.487 2.159L1.952 148.175a8.528 8.528 0 0 0-1.126 9.062 8.525 8.525 0 0 0 7.714 4.89h40.089L17.355 279.39a8.537 8.537 0 0 0 8.243 10.735 8.512 8.512 0 0 0 6.588-3.106L151.65 141.954a8.526 8.526 0 0 0 1.126-9.062zM511.17 354.755a8.525 8.525 0 0 0-7.714-4.89h-40.089l31.274-117.263a8.535 8.535 0 0 0-4.343-9.788 8.543 8.543 0 0 0-10.487 2.159L360.346 370.038a8.528 8.528 0 0 0-1.126 9.062 8.525 8.525 0 0 0 7.714 4.89h40.089l-31.274 117.263a8.537 8.537 0 0 0 8.243 10.735 8.512 8.512 0 0 0 6.588-3.106l119.465-145.064a8.53 8.53 0 0 0 1.125-9.063z">
    </path>
  </g>
</svg>