<svg xmlns="http://www.w3.org/2000/svg" version="1.1" width="512" height="512" viewBox="0 0 64 64">
  <g style="fill: var(--icon-fill, #fff);">
    <path id="Effect" d="M53.038 12.22a9.683 9.683 0 0 0-3.187 4.167 9.146 9.146 0 0 0-.628 3.563c-.853.025-1.706.126-2.484.352-.076-1.43.1-3.087.778-4.844 1.029-2.61 2.76-4.291 4.04-5.245a1.272 1.272 0 0 1 1.757.251c.401.577.301 1.355-.276 1.757zm9.913 4.568c-1.556-.276-3.965-.401-6.575.653-1.832.728-3.188 1.807-4.217 2.86.904.227 1.782.578 2.61 1.03a8.676 8.676 0 0 1 2.535-1.556 9.537 9.537 0 0 1 5.22-.527c.678.1 1.33-.327 1.456-1.03a1.232 1.232 0 0 0-1.03-1.43zm-7.404 8.307c-3.413-3.639-9.888-3.639-12.422.904-2.46 4.391-4.543 7.905-10.465 10.916v.026c-.276 1.43-.778 2.86-1.004 3.187a14.754 14.754 0 0 1-4.216 5.396 18.39 18.39 0 0 1-11.218 3.79c-3.188 0-6.25-.804-8.935-2.31-3.061 1.807-5.395 3.564-6.926 5.02-.753.727-.251 2.007.803 2.007h39.225c8.96 0 9.085-6.7 9.738-9.486 1.004-4.367 3.99-6.877 4.944-8.031 2.585-3.137 3.388-8.282.476-11.419zm-49.54-6.35c-6.776 6.375-7.604 15.66-1.982 22.387 5.496 6.55 15.133 7.554 21.859 2.409 1.706-1.33 3.036-3.212 3.84-5.295l.025-.05c1.204-3.113.225-7.83-1.406-10.616-3.363-5.697-10.24-6.174-14.982-3.715-2.31 1.18-3.99 3.363-4.518 5.848-.477 2.233.025 4.417 1.406 6.148 2.359 2.937 6.575 3.74 9.837 1.832a5.025 5.025 0 0 0 2.385-3.162c.175-.778.225-1.932-.527-3.061a4.163 4.163 0 0 0-5.045-1.556c-.627.25-1.38-.05-1.631-.703-.276-.627.05-1.38.678-1.631 2.936-1.18 6.324-.15 8.08 2.484.98 1.456 1.306 3.238.904 5.02-.477 1.982-1.782 3.739-3.589 4.793a9.98 9.98 0 0 1-5.07 1.355c-3.036 0-5.997-1.33-7.98-3.815-1.857-2.308-2.535-5.245-1.907-8.231.677-3.187 2.86-6.023 5.822-7.554 5.848-3.012 14.305-2.108 18.295 4.668 1.205 2.033 2.109 4.894 2.26 7.73 4.24-2.485 5.947-5.296 7.854-8.659C31.38 9.736 14.29 10.991 6.007 18.746z">
    </path>
  </g>
</svg>