<svg xmlns="http://www.w3.org/2000/svg" version="1.1" xmlns:xlink="http://www.w3.org/1999/xlink" width="512" height="512" x="0" y="0" viewBox="0 0 512 512" style="enable-background:new 0 0 512 512" xml:space="preserve" class="">
  <g style="fill: var(--icon-fill, #fff);">
    <path id="Effect" d="M180.912 113.92c3.17 7.654 11.945 11.288 19.598 8.118 7.654-3.17 11.288-11.945 8.118-19.599l-15.307-36.955c-3.17-7.654-11.945-11.288-19.598-8.118-7.654 3.17-11.288 11.945-8.118 19.599zM331.088 398.08c-3.17-7.654-11.945-11.288-19.598-8.118-7.654 3.17-11.288 11.945-8.118 19.599l15.307 36.955c3.17 7.654 11.945 11.288 19.598 8.118 7.654-3.17 11.288-11.945 8.118-19.599zM132.256 153.47c5.858 5.858 15.355 5.858 21.213 0 5.858-5.858 5.858-15.355 0-21.213l-28.284-28.284c-5.858-5.858-15.355-5.858-21.213 0-5.858 5.858-5.858 15.355 0 21.213zM379.744 358.531c-5.858-5.858-15.355-5.858-21.213 0-5.858 5.858-5.858 15.355 0 21.213l28.284 28.284c5.858 5.858 15.355 5.858 21.213 0 5.858-5.858 5.858-15.355 0-21.213zM65.484 193.322l36.955 15.308c7.654 3.17 16.428-.464 19.599-8.118 3.17-7.654-.464-16.428-8.118-19.599l-36.955-15.308c-7.654-3.17-16.428.464-19.599 8.118-3.17 7.653.464 16.428 8.118 19.599zM446.516 318.679l-36.955-15.308c-7.654-3.17-16.428.464-19.599 8.118-3.17 7.654.464 16.428 8.118 19.599l36.955 15.308c7.654 3.17 16.428-.464 19.599-8.118 3.17-7.654-.464-16.429-8.118-19.599zM136.82 375.18c9.763 9.763 25.592 9.763 35.355 0l73.379-73.379a15 15 0 0 0 3.56-15.537l-9.922-28.512c-2.424-6.967-11.3-9-16.516-3.784l-85.856 85.856c-9.763 9.764-9.763 25.593 0 35.356z"></path>
    <path id="Effect" d="M143.891 445.891c-21.445 21.444-56.337 21.444-77.782 0-21.445-21.445-21.445-56.337 0-77.782L171.698 262.52c-34.941-8.298-72.473 1.762-98.518 27.807l-42.426 42.426c-41.005 41.005-41.005 107.487 0 148.492 41.005 41.005 107.487 41.005 148.492 0l42.426-42.426c26.046-26.046 36.106-63.577 27.807-98.518zM481.246 30.754c-41.005-41.005-107.487-41.005-148.492 0L290.327 73.18c-26.046 26.046-36.106 63.577-27.807 98.518L368.109 66.109c21.445-21.444 56.337-21.444 77.781 0C456.279 76.497 462 90.309 462 105c0 14.69-5.721 28.503-16.109 38.89l-105.59 105.59c34.941 8.299 72.472-1.761 98.518-27.808l42.427-42.426c41.005-41.005 41.005-107.487 0-148.492z"></path>
    <path id="Effect" d="M375.18 136.82c-9.763-9.763-25.592-9.763-35.355 0l-73.378 73.378a15 15 0 0 0-3.56 15.537l9.922 28.512c2.424 6.967 11.3 9 16.516 3.784l85.856-85.856c9.762-9.763 9.762-25.592-.001-35.355z"></path>
  </g>
</svg>

